<svg width="134" height="64" viewBox="0 0 134 64" fill="none" xmlns="http://www.w3.org/2000/svg">
<path d="M10.4511 20.9766C12.271 17.5446 15.9814 15.1272 20.8756 15.1272C25.7699 15.1272 29.4361 17.174 30.726 21.0119C32.5812 17.4828 36.6538 15.1272 41.3802 15.1272C47.5643 15.1272 51.9285 18.4004 51.9285 25.2026V43.1742C51.9285 45.4504 52.4939 46.0151 55.9304 46.5444V47.709H41.6452V46.5444C45.02 46.0504 45.4175 45.521 45.4175 43.3683V26.5348C45.4175 20.9854 42.8644 18.2416 38.2705 18.2416C34.8958 18.2416 32.4133 19.6355 30.991 21.8765C31.1714 22.8245 31.2602 23.7877 31.256 24.7526V43.3683C31.256 45.521 31.6536 46.0768 35.0283 46.5444V47.709H20.9728V46.5444C24.3475 46.0768 24.7451 45.521 24.7451 43.3683V26.5348C24.7451 20.9854 22.2626 18.2416 17.6776 18.2416C16.2427 18.1686 14.8154 18.4924 13.5529 19.1773C12.2904 19.8622 11.2415 20.8817 10.5217 22.1235V43.3683C10.5217 45.521 10.9193 46.0768 14.294 46.5444V47.709H0V46.5444C3.44541 46.0151 4.00197 45.4504 4.00197 43.1742V20.8442C4.00197 19.0797 3.77228 18.7268 1.9524 18.1357L0 17.5446V16.5476L10.4511 15.3566V20.9766Z" fill="black"/>
<path d="M101.699 33.9186C99.8998 24.1493 105.753 16.0261 114.765 14.2816C123.611 12.5908 131.842 17.7259 133.676 27.701C135.475 37.4703 129.587 45.6561 120.61 47.3827C111.633 49.1093 103.533 43.8936 101.699 33.9186ZM126.735 29.3739C125.059 20.2845 120.25 14.8721 114.827 15.9546C109.237 17.0192 106.982 23.4515 108.605 32.2725C110.272 41.3529 115.09 46.8101 120.548 45.7634C126.007 44.7167 128.359 38.2307 126.735 29.3739Z" fill="black"/>
<path d="M55.0892 33.9186C53.2702 24.1493 59.2909 16.0261 68.622 14.2816C77.7984 12.5908 86.3292 17.7259 88.2208 27.701C90.0852 37.4703 83.9918 45.6561 74.6881 47.3827C65.3843 49.1093 56.9899 43.8936 55.0892 33.9186ZM81.027 29.3739C79.299 20.2845 74.3152 14.8721 68.6947 15.9546C62.9014 17.0192 60.5641 23.4515 62.2466 32.2725C63.9746 41.3529 68.9675 46.8101 74.6244 45.7634C80.2812 44.7167 82.7186 38.2307 81.027 29.3739Z" fill="black"/>
<path d="M97.8782 42.2079C97.8782 52.281 95.2976 55.8667 87.5985 61.495L85.7662 62.8363L85.0609 61.8895C90.2222 57.357 91.5298 52.5966 91.5298 42.8479V20.5802C91.5298 18.8268 91.3061 18.4761 89.534 17.8887L87.6329 17.3014V16.3107L97.8782 15.1272V42.2079Z" fill="black"/>
<path d="M89.7255 5.41109C89.6905 4.59909 89.8997 3.79521 90.326 3.10287C90.7523 2.41054 91.3763 1.86142 92.1178 1.52617C92.8592 1.19092 93.6842 1.08488 94.4865 1.22168C95.2888 1.35849 96.0317 1.73188 96.6197 2.29383C97.2078 2.85577 97.6139 3.58056 97.786 4.37494C97.9581 5.16931 97.8883 5.99694 97.5854 6.75134C97.2826 7.50573 96.7606 8.15239 96.0867 8.6081C95.4127 9.06381 94.6177 9.30773 93.8038 9.30849C92.7471 9.32586 91.7261 8.92636 90.9626 8.19668C90.199 7.467 89.7545 6.46604 89.7255 5.41109Z" fill="white"/>
</svg>
